<?xml version="1.0" encoding="UTF-8" standalone="no"?>
<svg
   xmlns:dc="http://purl.org/dc/elements/1.1/"
   xmlns:cc="http://creativecommons.org/ns#"
   xmlns:rdf="http://www.w3.org/1999/02/22-rdf-syntax-ns#"
   xmlns:svg="http://www.w3.org/2000/svg"
   xmlns="http://www.w3.org/2000/svg"
   xmlns:xlink="http://www.w3.org/1999/xlink"
   viewBox="0 0 1000 1000"
   height="1000"
   width="1000"
   version="1.1"
   id="svg4190">
  <metadata
     id="metadata4196">
    <rdf:RDF>
      <cc:Work
         rdf:about="">
        <dc:format>image/svg+xml</dc:format>
        <dc:type
           rdf:resource="http://purl.org/dc/dcmitype/StillImage" />
        <dc:title></dc:title>
      </cc:Work>
    </rdf:RDF>
  </metadata>
  <defs
     id="defs4194" />
  <g
     style="display:none;opacity:0.19599998"
     id="layer1">
    <image
       y="8.75"
       x="0"
       id="image4448"
       preserveAspectRatio="none"
       height="882.5"
       width="1000"
       xlink:href="file:///home/tong/images/disktree_400_transparent.png" />
  </g>
  <g
     style="display:inline;opacity:1"
     id="layer8" />
  <g
     style="display:inline"
     id="layer9" />
  <g
     style="display:inline"
     id="layer11">
    <g
       id="g4837">
      <path
         id="path4920-8"
         style="display:inline;opacity:1;fill:#000000;fill-opacity:1;fill-rule:evenodd;stroke:none;stroke-width:1px;stroke-linecap:butt;stroke-linejoin:miter;stroke-opacity:1"
         d="m 630,30 c 25,0 50.4297,13.56648 50.4297,45 0,25 -20.6699,35 -30.6699,35 -14.592,0 -19.42217,-9.32855 -19.70316,-9.89648 0.30135,0.46313 2.05274,2.3164 10.80276,2.3164 11.5769,0 19.5035,-10.69127 19.3008,-22.41992 C 659.9625,68.56592 650.7174,57.84961 634.58789,57.84961 619.44454,57.84961 600,72.08728 600,100 c 0,44.59826 30.08229,47.03342 62.1699,75 21.7163,18.92721 32.8301,40 32.8301,40 0,0 32.4805,-75 112.4805,-75 40,0 74.8418,30 74.8418,70 0,32.16537 -24.4891,52.86334 -42.3223,52.63867 -22.1346,-0.27886 -29.8622,-13.91755 -30.2012,-14.53515 C 810.1025,248.51673 812.0807,250 825,250 c 10,0 23.7324,-12.36219 23.7324,-30 0,-18.11025 -13.733,-31.8889 -36.4101,-32.36133 C 782.3223,187.63867 765,210 765,245 c 0,10 -5,60 40,80 32.3081,14.35916 105,55 105,150 0,90 -65.0859,132.33008 -65.0859,132.33008 0,0 155.0859,12.66992 155.0859,152.66992 0,54 -44,115 -110,115 -47.0766,0 -70,-40 -70,-40 0,0 15,10 40,10 21.3043,0 60,-15 60,-70 0,-35 -32,-70 -80,-70 -15,0 -55.19,4.83457 -90,45 -65,75 -135,75 -135,75 0,0 -10,90 -115,90 l 0,-170 A 240,240 0 0 0 740,505 240,240 0 0 0 500,265 l 0,-210 c 45,0 60,25 60,25 0,0 15,-50 70,-50 z m 179.7988,218.10352 c -0.049,-0.0666 -0.066,-0.11133 -0.066,-0.11133 0,0 0.059,0.0971 0.066,0.11133 z M 370,30 c -25,0 -50.42969,13.566475 -50.42969,45 0,25 20.66992,35 30.66992,35 14.59197,0 19.42214,-9.32855 19.70313,-9.89648 -0.30135,0.46313 -2.05274,2.3164 -10.80274,2.3164 -11.57688,0 -19.50353,-10.69127 -19.30078,-22.41992 0.19766,-11.434081 9.44279,-22.150391 25.57227,-22.150391 C 380.55546,57.849609 400,72.087281 400,100 c 0,44.59826 -30.08229,47.03342 -62.16992,75 C 316.11383,193.92721 305,215 305,215 c 0,0 -32.48047,-75 -112.48047,-75 -40,0 -74.8418,30 -74.8418,70 0,32.16537 24.48906,52.86334 42.32227,52.63867 22.13465,-0.27886 29.86217,-13.91755 30.20117,-14.53515 C 189.8975,248.51673 187.91934,250 175,250 c -10,0 -23.73242,-12.36219 -23.73242,-30 0,-18.11025 13.733,-31.8889 36.41015,-32.36133 C 217.67773,187.63867 235,210 235,245 c 0,10 5,60 -40,80 -32.30812,14.35916 -105,55 -105,150 0,90 65.08594,132.33008 65.08594,132.33008 C 155.08594,607.33008 0,620 0,760 c 0,54 44,115 110,115 47.07657,0 70,-40 70,-40 0,0 -15,10 -40,10 -21.30428,0 -60,-15 -60,-70 0,-35 32,-70 80,-70 15,0 55.18996,4.83457 90,45 65,75 135,75 135,75 0,0 10,90 115,90 l 0,-170 A 240,240 0 0 1 260,505 240,240 0 0 1 500,265 l 0,-210 c -45,0 -60,25 -60,25 0,0 -15,-50 -70,-50 z M 190.20117,248.10352 c 0.0489,-0.0666 0.0664,-0.11133 0.0664,-0.11133 0,0 -0.0586,0.0971 -0.0664,0.11133 z" />
      <circle
         style="opacity:1;fill:#000000;fill-opacity:1;stroke:none;stroke-width:20;stroke-miterlimit:4;stroke-dasharray:none;stroke-opacity:1"
         id="path4161"
         cx="500"
         cy="500"
         r="130" />
    </g>
  </g>
  <g
     style="display:none;opacity:0.20800003"
     id="layer10">
    <circle
       r="84"
       cy="757"
       cx="162"
       id="path5590"
       style="opacity:1;fill:#0000ff;fill-opacity:1;stroke:none;stroke-width:20;stroke-miterlimit:4;stroke-dasharray:none;stroke-opacity:1" />
    <circle
       r="164.96979"
       cy="757"
       cx="165.03021"
       id="path5590-3"
       style="opacity:1;fill:#ff0000;fill-opacity:1;stroke:none;stroke-width:20;stroke-miterlimit:4;stroke-dasharray:none;stroke-opacity:1" />
    <circle
       r="160"
       cy="460"
       cx="245"
       id="path5590-3-2"
       style="opacity:1;fill:#ff0000;fill-opacity:1;stroke:none;stroke-width:20;stroke-miterlimit:4;stroke-dasharray:none;stroke-opacity:1" />
    <circle
       r="115"
       cy="235"
       cx="185"
       id="path5590-3-2-8"
       style="opacity:1;fill:#ff0000;fill-opacity:1;stroke:none;stroke-width:20;stroke-miterlimit:4;stroke-dasharray:none;stroke-opacity:1" />
    <circle
       r="80"
       cy="90"
       cx="355"
       id="path5590-3-2-8-4"
       style="opacity:1;fill:#ff0000;fill-opacity:1;stroke:none;stroke-width:20;stroke-miterlimit:4;stroke-dasharray:none;stroke-opacity:1" />
    <circle
       r="78"
       cy="118"
       cx="500"
       id="path5590-3-2-8-4-0"
       style="opacity:1;fill:#ff0000;fill-opacity:1;stroke:none;stroke-width:20;stroke-miterlimit:4;stroke-dasharray:none;stroke-opacity:1" />
    <circle
       r="270"
       cy="376"
       cx="500"
       id="path5590-3-2-8-4-0-9"
       style="opacity:1;fill:#ffff00;fill-opacity:1;stroke:none;stroke-width:20;stroke-miterlimit:4;stroke-dasharray:none;stroke-opacity:1" />
    <circle
       r="123.75"
       cy="766.5"
       cx="501.75"
       id="path5590-3-2-8-4-0-9-5"
       style="opacity:1;fill:#ffff00;fill-opacity:1;stroke:none;stroke-width:20;stroke-miterlimit:4;stroke-dasharray:none;stroke-opacity:1" />
    <circle
       r="156"
       cy="646"
       cx="390"
       id="path5590-3-2-8-4-0-9-5-1"
       style="opacity:1;fill:#00ff00;fill-opacity:1;stroke:none;stroke-width:20;stroke-miterlimit:4;stroke-dasharray:none;stroke-opacity:1" />
    <circle
       r="55"
       cy="235"
       cx="185"
       id="path5720"
       style="opacity:1;fill:#00ff00;fill-opacity:1;stroke:none;stroke-width:20;stroke-miterlimit:4;stroke-dasharray:none;stroke-opacity:1" />
    <circle
       cx="355"
       cy="97.5"
       r="47.5"
       id="path5720-4"
       style="display:inline;opacity:1;fill:#00ff00;fill-opacity:1;stroke:none;stroke-width:20;stroke-miterlimit:4;stroke-dasharray:none;stroke-opacity:1" />
  </g>
</svg>
